<?xml version="1.0" encoding="utf-8" standalone="no"?>
<!DOCTYPE svg PUBLIC "-//W3C//DTD SVG 1.1//EN"
  "http://www.w3.org/Graphics/SVG/1.1/DTD/svg11.dtd">
<svg xmlns:xlink="http://www.w3.org/1999/xlink" width="576pt" height="360pt" viewBox="0 0 576 360" xmlns="http://www.w3.org/2000/svg" version="1.1">
 <metadata>
  <rdf:RDF xmlns:dc="http://purl.org/dc/elements/1.1/" xmlns:cc="http://creativecommons.org/ns#" xmlns:rdf="http://www.w3.org/1999/02/22-rdf-syntax-ns#">
   <cc:Work>
    <dc:type rdf:resource="http://purl.org/dc/dcmitype/StillImage"/>
    <dc:date>2025-12-19T23:38:29.605896</dc:date>
    <dc:format>image/svg+xml</dc:format>
    <dc:creator>
     <cc:Agent>
      <dc:title>Matplotlib v3.10.7, https://matplotlib.org/</dc:title>
     </cc:Agent>
    </dc:creator>
   </cc:Work>
  </rdf:RDF>
 </metadata>
 <defs>
  <style type="text/css">*{stroke-linejoin: round; stroke-linecap: butt}</style>
 </defs>
 <g id="figure_1">
  <g id="patch_1">
   <path d="M 0 360 
L 576 360 
L 576 0 
L 0 0 
z
" style="fill: #ffffff"/>
  </g>
  <g id="axes_1">
   <g id="patch_2">
    <path d="M 72 320.4 
L 518.4 320.4 
L 518.4 43.2 
L 72 43.2 
z
" style="fill: #ffffff"/>
   </g>
   <g id="matplotlib.axis_1">
    <g id="xtick_1">
     <g id="line2d_1">
      <path d="M 92.290909 320.4 
L 92.290909 43.2 
" clip-path="url(#pea38624490)" style="fill: none; stroke-dasharray: 2.96,1.28; stroke-dashoffset: 0; stroke: #b0b0b0; stroke-opacity: 0.5; stroke-width: 0.8"/>
     </g>
     <g id="line2d_2">
      <defs>
       <path id="mdaf2b51b57" d="M 0 0 
L 0 3.5 
" style="stroke: #000000; stroke-width: 0.8"/>
      </defs>
      <g>
       <use xlink:href="#mdaf2b51b57" x="92.290909" y="320.4" style="stroke: #000000; stroke-width: 0.8"/>
      </g>
     </g>
     <g id="text_1">
      <!-- 0.0 -->
      <g transform="translate(84.790909 334.275) scale(0.1 -0.1)">
       <defs>
        <path id="SimHei-30" d="M 225 2537 
Q 250 3200 412 3587 
Q 575 3975 875 4225 
Q 1175 4475 1612 4475 
Q 2050 4475 2375 4112 
Q 2700 3750 2800 3200 
Q 2900 2650 2862 1937 
Q 2825 1225 2612 775 
Q 2400 325 1975 150 
Q 1550 -25 1125 187 
Q 700 400 525 750 
Q 350 1100 275 1487 
Q 200 1875 225 2537 
z
M 750 2687 
Q 675 2000 800 1462 
Q 925 925 1212 700 
Q 1500 475 1800 612 
Q 2100 750 2237 1162 
Q 2375 1575 2375 2062 
Q 2375 2550 2337 2950 
Q 2300 3350 2112 3675 
Q 1925 4000 1612 4012 
Q 1300 4025 1062 3700 
Q 825 3375 750 2687 
z
" transform="scale(0.015625)"/>
        <path id="SimHei-2e" d="M 1075 125 
L 500 125 
L 500 675 
L 1075 675 
L 1075 125 
z
" transform="scale(0.015625)"/>
       </defs>
       <use xlink:href="#SimHei-30"/>
       <use xlink:href="#SimHei-2e" transform="translate(50 0)"/>
       <use xlink:href="#SimHei-30" transform="translate(100 0)"/>
      </g>
     </g>
    </g>
    <g id="xtick_2">
     <g id="line2d_3">
      <path d="M 159.927273 320.4 
L 159.927273 43.2 
" clip-path="url(#pea38624490)" style="fill: none; stroke-dasharray: 2.96,1.28; stroke-dashoffset: 0; stroke: #b0b0b0; stroke-opacity: 0.5; stroke-width: 0.8"/>
     </g>
     <g id="line2d_4">
      <g>
       <use xlink:href="#mdaf2b51b57" x="159.927273" y="320.4" style="stroke: #000000; stroke-width: 0.8"/>
      </g>
     </g>
     <g id="text_2">
      <!-- 0.5 -->
      <g transform="translate(152.427273 334.275) scale(0.1 -0.1)">
       <defs>
        <path id="SimHei-35" d="M 550 1325 
Q 725 650 1150 575 
Q 1575 500 1837 662 
Q 2100 825 2212 1087 
Q 2325 1350 2312 1675 
Q 2300 2000 2137 2225 
Q 1975 2450 1725 2525 
Q 1475 2600 1162 2525 
Q 850 2450 650 2175 
L 225 2225 
Q 275 2375 700 4375 
L 2675 4375 
L 2675 3925 
L 1075 3925 
Q 950 3250 825 2850 
Q 1200 3025 1525 3012 
Q 1850 3000 2150 2862 
Q 2450 2725 2587 2487 
Q 2725 2250 2787 2012 
Q 2850 1775 2837 1500 
Q 2825 1225 2725 937 
Q 2625 650 2425 462 
Q 2225 275 1937 162 
Q 1650 50 1275 75 
Q 900 100 562 350 
Q 225 600 100 1200 
L 550 1325 
z
" transform="scale(0.015625)"/>
       </defs>
       <use xlink:href="#SimHei-30"/>
       <use xlink:href="#SimHei-2e" transform="translate(50 0)"/>
       <use xlink:href="#SimHei-35" transform="translate(100 0)"/>
      </g>
     </g>
    </g>
    <g id="xtick_3">
     <g id="line2d_5">
      <path d="M 227.563636 320.4 
L 227.563636 43.2 
" clip-path="url(#pea38624490)" style="fill: none; stroke-dasharray: 2.96,1.28; stroke-dashoffset: 0; stroke: #b0b0b0; stroke-opacity: 0.5; stroke-width: 0.8"/>
     </g>
     <g id="line2d_6">
      <g>
       <use xlink:href="#mdaf2b51b57" x="227.563636" y="320.4" style="stroke: #000000; stroke-width: 0.8"/>
      </g>
     </g>
     <g id="text_3">
      <!-- 1.0 -->
      <g transform="translate(220.063636 334.275) scale(0.1 -0.1)">
       <defs>
        <path id="SimHei-31" d="M 1400 3600 
Q 1075 3275 575 2975 
L 575 3450 
Q 1200 3875 1600 4450 
L 1900 4450 
L 1900 150 
L 1400 150 
L 1400 3600 
z
" transform="scale(0.015625)"/>
       </defs>
       <use xlink:href="#SimHei-31"/>
       <use xlink:href="#SimHei-2e" transform="translate(50 0)"/>
       <use xlink:href="#SimHei-30" transform="translate(100 0)"/>
      </g>
     </g>
    </g>
    <g id="xtick_4">
     <g id="line2d_7">
      <path d="M 295.2 320.4 
L 295.2 43.2 
" clip-path="url(#pea38624490)" style="fill: none; stroke-dasharray: 2.96,1.28; stroke-dashoffset: 0; stroke: #b0b0b0; stroke-opacity: 0.5; stroke-width: 0.8"/>
     </g>
     <g id="line2d_8">
      <g>
       <use xlink:href="#mdaf2b51b57" x="295.2" y="320.4" style="stroke: #000000; stroke-width: 0.8"/>
      </g>
     </g>
     <g id="text_4">
      <!-- 1.5 -->
      <g transform="translate(287.7 334.275) scale(0.1 -0.1)">
       <use xlink:href="#SimHei-31"/>
       <use xlink:href="#SimHei-2e" transform="translate(50 0)"/>
       <use xlink:href="#SimHei-35" transform="translate(100 0)"/>
      </g>
     </g>
    </g>
    <g id="xtick_5">
     <g id="line2d_9">
      <path d="M 362.836364 320.4 
L 362.836364 43.2 
" clip-path="url(#pea38624490)" style="fill: none; stroke-dasharray: 2.96,1.28; stroke-dashoffset: 0; stroke: #b0b0b0; stroke-opacity: 0.5; stroke-width: 0.8"/>
     </g>
     <g id="line2d_10">
      <g>
       <use xlink:href="#mdaf2b51b57" x="362.836364" y="320.4" style="stroke: #000000; stroke-width: 0.8"/>
      </g>
     </g>
     <g id="text_5">
      <!-- 2.0 -->
      <g transform="translate(355.336364 334.275) scale(0.1 -0.1)">
       <defs>
        <path id="SimHei-32" d="M 300 250 
Q 325 625 650 925 
Q 975 1225 1475 1862 
Q 1975 2500 2125 2850 
Q 2275 3200 2237 3450 
Q 2200 3700 2000 3862 
Q 1800 4025 1537 4000 
Q 1275 3975 1037 3800 
Q 800 3625 675 3275 
L 200 3350 
Q 400 3925 712 4187 
Q 1025 4450 1450 4475 
Q 1700 4500 1900 4462 
Q 2100 4425 2312 4287 
Q 2525 4150 2662 3875 
Q 2800 3600 2762 3212 
Q 2725 2825 2375 2287 
Q 2025 1750 1025 600 
L 2825 600 
L 2825 150 
L 300 150 
L 300 250 
z
" transform="scale(0.015625)"/>
       </defs>
       <use xlink:href="#SimHei-32"/>
       <use xlink:href="#SimHei-2e" transform="translate(50 0)"/>
       <use xlink:href="#SimHei-30" transform="translate(100 0)"/>
      </g>
     </g>
    </g>
    <g id="xtick_6">
     <g id="line2d_11">
      <path d="M 430.472727 320.4 
L 430.472727 43.2 
" clip-path="url(#pea38624490)" style="fill: none; stroke-dasharray: 2.96,1.28; stroke-dashoffset: 0; stroke: #b0b0b0; stroke-opacity: 0.5; stroke-width: 0.8"/>
     </g>
     <g id="line2d_12">
      <g>
       <use xlink:href="#mdaf2b51b57" x="430.472727" y="320.4" style="stroke: #000000; stroke-width: 0.8"/>
      </g>
     </g>
     <g id="text_6">
      <!-- 2.5 -->
      <g transform="translate(422.972727 334.275) scale(0.1 -0.1)">
       <use xlink:href="#SimHei-32"/>
       <use xlink:href="#SimHei-2e" transform="translate(50 0)"/>
       <use xlink:href="#SimHei-35" transform="translate(100 0)"/>
      </g>
     </g>
    </g>
    <g id="xtick_7">
     <g id="line2d_13">
      <path d="M 498.109091 320.4 
L 498.109091 43.2 
" clip-path="url(#pea38624490)" style="fill: none; stroke-dasharray: 2.96,1.28; stroke-dashoffset: 0; stroke: #b0b0b0; stroke-opacity: 0.5; stroke-width: 0.8"/>
     </g>
     <g id="line2d_14">
      <g>
       <use xlink:href="#mdaf2b51b57" x="498.109091" y="320.4" style="stroke: #000000; stroke-width: 0.8"/>
      </g>
     </g>
     <g id="text_7">
      <!-- 3.0 -->
      <g transform="translate(490.609091 334.275) scale(0.1 -0.1)">
       <defs>
        <path id="SimHei-33" d="M 250 1225 
L 700 1300 
Q 800 975 1025 762 
Q 1250 550 1587 562 
Q 1925 575 2125 837 
Q 2325 1100 2300 1437 
Q 2275 1775 2037 1962 
Q 1800 2150 1275 2225 
L 1275 2550 
Q 1800 2600 2037 2825 
Q 2275 3050 2250 3412 
Q 2225 3775 1925 3937 
Q 1625 4100 1287 3975 
Q 950 3850 750 3275 
L 300 3350 
Q 450 3800 712 4100 
Q 975 4400 1425 4450 
Q 1875 4500 2212 4337 
Q 2550 4175 2687 3837 
Q 2825 3500 2725 3100 
Q 2625 2700 2150 2400 
Q 2500 2250 2687 1950 
Q 2875 1650 2812 1162 
Q 2750 675 2375 375 
Q 2000 75 1525 87 
Q 1050 100 700 387 
Q 350 675 250 1225 
z
" transform="scale(0.015625)"/>
       </defs>
       <use xlink:href="#SimHei-33"/>
       <use xlink:href="#SimHei-2e" transform="translate(50 0)"/>
       <use xlink:href="#SimHei-30" transform="translate(100 0)"/>
      </g>
     </g>
    </g>
    <g id="text_8">
     <!-- 迭代次数 -->
     <g transform="translate(263.2 352.275) scale(0.16 -0.16)">
      <defs>
       <path id="SimHei-8fed" d="M 3900 1875 
Q 3600 1350 3287 1012 
Q 2975 675 2450 275 
Q 2350 475 2025 700 
Q 2600 975 3012 1425 
Q 3425 1875 3600 2450 
Q 2350 2450 1950 2425 
L 1950 2900 
Q 2375 2875 3675 2875 
Q 3725 3250 3750 3775 
L 2800 3775 
Q 2675 3450 2550 3175 
Q 2300 3300 2075 3350 
Q 2275 3675 2425 4112 
Q 2575 4550 2700 5100 
Q 2850 5000 3225 4925 
Q 3075 4725 2950 4200 
L 3750 4200 
Q 3750 4850 3700 5250 
L 4275 5225 
Q 4225 4925 4200 4200 
L 4950 4200 
Q 5175 4200 5575 4225 
L 5575 3725 
Q 5175 3775 4875 3775 
L 4200 3775 
Q 4175 3250 4125 2875 
L 5150 2875 
Q 5475 2875 5925 2900 
L 5925 2425 
Q 5475 2450 5075 2450 
L 4100 2450 
L 4050 2300 
Q 4650 1775 5725 700 
Q 5600 650 5275 300 
Q 4775 975 3900 1875 
z
M 1550 2950 
L 1550 625 
Q 2200 -25 3712 -12 
Q 5225 0 6125 100 
Q 5950 -225 5900 -475 
L 3575 -475 
Q 2975 -475 2525 -387 
Q 2075 -300 1725 -50 
Q 1375 200 1162 12 
Q 950 -175 650 -550 
Q 500 -350 250 -175 
Q 775 275 1075 575 
L 1075 2525 
Q 750 2525 350 2500 
L 350 2975 
Q 775 2950 1075 2950 
L 1550 2950 
z
M 1125 5025 
Q 1525 4275 1675 3900 
Q 1450 3875 1175 3650 
Q 950 4275 650 4750 
Q 900 4850 1125 5025 
z
" transform="scale(0.015625)"/>
       <path id="SimHei-4ee3" d="M 3300 2950 
Q 3175 4575 3150 5100 
Q 3300 5075 3725 5025 
Q 3675 4725 3800 3050 
Q 5000 3275 5650 3475 
L 5775 3000 
Q 5500 2975 3850 2625 
Q 4150 1050 4737 450 
Q 5325 -150 5412 125 
Q 5500 400 5525 725 
Q 5800 550 6075 500 
Q 5900 -200 5737 -425 
Q 5575 -650 5137 -500 
Q 4700 -350 4187 300 
Q 3675 950 3350 2525 
Q 2400 2325 2175 2250 
L 2025 2725 
Q 2425 2775 3300 2950 
z
M 2250 4975 
Q 2100 4725 1700 3650 
L 1700 475 
Q 1700 -50 1725 -600 
L 1200 -600 
Q 1225 -50 1225 475 
L 1225 2750 
Q 850 2150 600 1850 
Q 450 2050 225 2225 
Q 625 2600 1050 3425 
Q 1475 4250 1675 5200 
Q 2050 5025 2250 4975 
z
M 4700 4875 
Q 5150 4325 5325 4050 
Q 5100 3900 4875 3725 
Q 4650 4150 4300 4575 
Q 4500 4700 4700 4875 
z
" transform="scale(0.015625)"/>
       <path id="SimHei-6b21" d="M 4150 3025 
Q 4000 2550 4050 2187 
Q 4100 1825 4275 1450 
Q 4450 1075 4800 750 
Q 5150 425 5475 212 
Q 5800 0 6150 -150 
Q 5875 -350 5750 -625 
Q 5250 -325 4887 -25 
Q 4525 275 4275 612 
Q 4025 950 3825 1425 
Q 3525 625 2950 125 
Q 2375 -375 1850 -650 
Q 1675 -400 1475 -225 
Q 2025 0 2487 362 
Q 2950 725 3162 1100 
Q 3375 1475 3450 1825 
Q 3525 2175 3537 2400 
Q 3550 2625 3525 3125 
Q 3825 3050 4150 3025 
z
M 3700 4975 
Q 3625 4900 3475 4575 
Q 3325 4250 3250 4075 
L 5775 4075 
Q 5650 3725 5550 3362 
Q 5450 3000 5275 2500 
Q 5000 2575 4775 2600 
Q 5025 3350 5100 3650 
L 3100 3650 
Q 2975 3400 2812 3100 
Q 2650 2800 2425 2450 
Q 2275 2600 1975 2700 
Q 2300 3050 2625 3762 
Q 2950 4475 3125 5200 
Q 3450 5025 3700 4975 
z
M 2025 2000 
Q 1825 1675 1475 1087 
Q 1125 500 725 -200 
Q 500 -25 250 175 
Q 725 725 1037 1262 
Q 1350 1800 1575 2325 
Q 1750 2175 2025 2000 
z
M 900 4750 
Q 1725 3725 1950 3375 
Q 1750 3250 1500 3050 
Q 1250 3525 500 4425 
Q 700 4575 900 4750 
z
" transform="scale(0.015625)"/>
       <path id="SimHei-6570" d="M 4525 4925 
Q 4475 4800 4400 4587 
Q 4325 4375 4175 3825 
L 5325 3825 
Q 5575 3825 5925 3850 
L 5925 3400 
Q 5650 3425 5500 3425 
Q 5500 3025 5362 2162 
Q 5225 1300 4875 675 
Q 5125 375 5437 137 
Q 5750 -100 6025 -200 
Q 5725 -425 5625 -625 
Q 5325 -450 5075 -225 
Q 4825 0 4575 325 
Q 4300 25 3987 -187 
Q 3675 -400 3200 -650 
Q 3075 -425 2850 -300 
Q 3225 -150 3650 125 
Q 4075 400 4300 675 
Q 4125 1025 3962 1425 
Q 3800 1825 3675 2475 
Q 3600 2275 3425 1950 
Q 3250 2050 3000 2150 
Q 3400 2850 3650 3675 
Q 3900 4500 3975 5100 
Q 4275 4975 4525 4925 
z
M 2100 2250 
Q 2000 2150 1875 1925 
L 3250 1925 
Q 3100 1300 2725 675 
Q 3125 525 3350 400 
Q 3225 225 3125 25 
Q 2900 175 2450 325 
Q 1950 -225 725 -650 
Q 600 -375 400 -275 
Q 1575 0 2000 475 
Q 1300 650 850 775 
Q 1000 1000 1250 1525 
Q 1000 1525 425 1500 
L 425 1950 
Q 900 1925 1400 1925 
Q 1500 2150 1550 2425 
Q 1825 2325 2100 2250 
z
M 1775 3950 
Q 1775 4550 1750 5100 
L 2250 5100 
Q 2225 4575 2225 3950 
Q 3075 3950 3425 3975 
L 3425 3525 
Q 3075 3550 2225 3550 
Q 2225 2825 2250 2425 
L 1750 2425 
Q 1775 2775 1775 3300 
Q 1650 3100 1300 2787 
Q 950 2475 650 2300 
Q 525 2525 275 2625 
Q 500 2700 875 2975 
Q 1250 3250 1450 3550 
Q 950 3550 500 3525 
L 500 3975 
Q 925 3950 1775 3950 
z
M 3975 3175 
Q 4200 1700 4600 1125 
Q 4850 1700 4937 2287 
Q 5025 2875 5050 3425 
L 4075 3425 
L 3975 3175 
z
M 1450 1000 
Q 1750 925 2275 800 
Q 2475 1050 2650 1525 
L 1725 1525 
Q 1600 1275 1450 1000 
z
M 3325 4825 
Q 3200 4625 3125 4450 
Q 3050 4275 2925 4025 
Q 2725 4125 2525 4175 
Q 2725 4500 2900 5000 
Q 3150 4875 3325 4825 
z
M 2575 3375 
Q 2900 3050 3200 2725 
Q 3050 2600 2875 2425 
Q 2525 2850 2300 3100 
Q 2450 3225 2575 3375 
z
M 925 5000 
Q 1275 4650 1500 4300 
L 1125 4075 
Q 950 4425 600 4725 
Q 825 4875 925 5000 
z
" transform="scale(0.015625)"/>
      </defs>
      <use xlink:href="#SimHei-8fed"/>
      <use xlink:href="#SimHei-4ee3" transform="translate(100 0)"/>
      <use xlink:href="#SimHei-6b21" transform="translate(200 0)"/>
      <use xlink:href="#SimHei-6570" transform="translate(300 0)"/>
     </g>
    </g>
   </g>
   <g id="matplotlib.axis_2">
    <g id="ytick_1">
     <g id="line2d_15">
      <path d="M 72 297.479188 
L 518.4 297.479188 
" clip-path="url(#pea38624490)" style="fill: none; stroke-dasharray: 2.96,1.28; stroke-dashoffset: 0; stroke: #b0b0b0; stroke-opacity: 0.5; stroke-width: 0.8"/>
     </g>
     <g id="line2d_16">
      <defs>
       <path id="m8c028016ed" d="M 0 0 
L -3.5 0 
" style="stroke: #000000; stroke-width: 0.8"/>
      </defs>
      <g>
       <use xlink:href="#m8c028016ed" x="72" y="297.479188" style="stroke: #000000; stroke-width: 0.8"/>
      </g>
     </g>
     <g id="text_9">
      <!-- -12.5 -->
      <g transform="translate(40 300.916688) scale(0.1 -0.1)">
       <defs>
        <path id="SimHei-2d" d="M 2975 2125 
L 125 2125 
L 125 2525 
L 2975 2525 
L 2975 2125 
z
" transform="scale(0.015625)"/>
       </defs>
       <use xlink:href="#SimHei-2d"/>
       <use xlink:href="#SimHei-31" transform="translate(50 0)"/>
       <use xlink:href="#SimHei-32" transform="translate(100 0)"/>
       <use xlink:href="#SimHei-2e" transform="translate(150 0)"/>
       <use xlink:href="#SimHei-35" transform="translate(200 0)"/>
      </g>
     </g>
    </g>
    <g id="ytick_2">
     <g id="line2d_17">
      <path d="M 72 264.885632 
L 518.4 264.885632 
" clip-path="url(#pea38624490)" style="fill: none; stroke-dasharray: 2.96,1.28; stroke-dashoffset: 0; stroke: #b0b0b0; stroke-opacity: 0.5; stroke-width: 0.8"/>
     </g>
     <g id="line2d_18">
      <g>
       <use xlink:href="#m8c028016ed" x="72" y="264.885632" style="stroke: #000000; stroke-width: 0.8"/>
      </g>
     </g>
     <g id="text_10">
      <!-- -10.0 -->
      <g transform="translate(40 268.323132) scale(0.1 -0.1)">
       <use xlink:href="#SimHei-2d"/>
       <use xlink:href="#SimHei-31" transform="translate(50 0)"/>
       <use xlink:href="#SimHei-30" transform="translate(100 0)"/>
       <use xlink:href="#SimHei-2e" transform="translate(150 0)"/>
       <use xlink:href="#SimHei-30" transform="translate(200 0)"/>
      </g>
     </g>
    </g>
    <g id="ytick_3">
     <g id="line2d_19">
      <path d="M 72 232.292076 
L 518.4 232.292076 
" clip-path="url(#pea38624490)" style="fill: none; stroke-dasharray: 2.96,1.28; stroke-dashoffset: 0; stroke: #b0b0b0; stroke-opacity: 0.5; stroke-width: 0.8"/>
     </g>
     <g id="line2d_20">
      <g>
       <use xlink:href="#m8c028016ed" x="72" y="232.292076" style="stroke: #000000; stroke-width: 0.8"/>
      </g>
     </g>
     <g id="text_11">
      <!-- -7.5 -->
      <g transform="translate(45 235.729576) scale(0.1 -0.1)">
       <defs>
        <path id="SimHei-37" d="M 850 150 
Q 1300 2050 2425 3925 
L 275 3925 
L 275 4375 
L 2950 4375 
L 2950 3950 
Q 1775 2050 1400 150 
L 850 150 
z
" transform="scale(0.015625)"/>
       </defs>
       <use xlink:href="#SimHei-2d"/>
       <use xlink:href="#SimHei-37" transform="translate(50 0)"/>
       <use xlink:href="#SimHei-2e" transform="translate(100 0)"/>
       <use xlink:href="#SimHei-35" transform="translate(150 0)"/>
      </g>
     </g>
    </g>
    <g id="ytick_4">
     <g id="line2d_21">
      <path d="M 72 199.698521 
L 518.4 199.698521 
" clip-path="url(#pea38624490)" style="fill: none; stroke-dasharray: 2.96,1.28; stroke-dashoffset: 0; stroke: #b0b0b0; stroke-opacity: 0.5; stroke-width: 0.8"/>
     </g>
     <g id="line2d_22">
      <g>
       <use xlink:href="#m8c028016ed" x="72" y="199.698521" style="stroke: #000000; stroke-width: 0.8"/>
      </g>
     </g>
     <g id="text_12">
      <!-- -5.0 -->
      <g transform="translate(45 203.136021) scale(0.1 -0.1)">
       <use xlink:href="#SimHei-2d"/>
       <use xlink:href="#SimHei-35" transform="translate(50 0)"/>
       <use xlink:href="#SimHei-2e" transform="translate(100 0)"/>
       <use xlink:href="#SimHei-30" transform="translate(150 0)"/>
      </g>
     </g>
    </g>
    <g id="ytick_5">
     <g id="line2d_23">
      <path d="M 72 167.104965 
L 518.4 167.104965 
" clip-path="url(#pea38624490)" style="fill: none; stroke-dasharray: 2.96,1.28; stroke-dashoffset: 0; stroke: #b0b0b0; stroke-opacity: 0.5; stroke-width: 0.8"/>
     </g>
     <g id="line2d_24">
      <g>
       <use xlink:href="#m8c028016ed" x="72" y="167.104965" style="stroke: #000000; stroke-width: 0.8"/>
      </g>
     </g>
     <g id="text_13">
      <!-- -2.5 -->
      <g transform="translate(45 170.542465) scale(0.1 -0.1)">
       <use xlink:href="#SimHei-2d"/>
       <use xlink:href="#SimHei-32" transform="translate(50 0)"/>
       <use xlink:href="#SimHei-2e" transform="translate(100 0)"/>
       <use xlink:href="#SimHei-35" transform="translate(150 0)"/>
      </g>
     </g>
    </g>
    <g id="ytick_6">
     <g id="line2d_25">
      <path d="M 72 134.511409 
L 518.4 134.511409 
" clip-path="url(#pea38624490)" style="fill: none; stroke-dasharray: 2.96,1.28; stroke-dashoffset: 0; stroke: #b0b0b0; stroke-opacity: 0.5; stroke-width: 0.8"/>
     </g>
     <g id="line2d_26">
      <g>
       <use xlink:href="#m8c028016ed" x="72" y="134.511409" style="stroke: #000000; stroke-width: 0.8"/>
      </g>
     </g>
     <g id="text_14">
      <!-- 0.0 -->
      <g transform="translate(50 137.948909) scale(0.1 -0.1)">
       <use xlink:href="#SimHei-30"/>
       <use xlink:href="#SimHei-2e" transform="translate(50 0)"/>
       <use xlink:href="#SimHei-30" transform="translate(100 0)"/>
      </g>
     </g>
    </g>
    <g id="ytick_7">
     <g id="line2d_27">
      <path d="M 72 101.917853 
L 518.4 101.917853 
" clip-path="url(#pea38624490)" style="fill: none; stroke-dasharray: 2.96,1.28; stroke-dashoffset: 0; stroke: #b0b0b0; stroke-opacity: 0.5; stroke-width: 0.8"/>
     </g>
     <g id="line2d_28">
      <g>
       <use xlink:href="#m8c028016ed" x="72" y="101.917853" style="stroke: #000000; stroke-width: 0.8"/>
      </g>
     </g>
     <g id="text_15">
      <!-- 2.5 -->
      <g transform="translate(50 105.355353) scale(0.1 -0.1)">
       <use xlink:href="#SimHei-32"/>
       <use xlink:href="#SimHei-2e" transform="translate(50 0)"/>
       <use xlink:href="#SimHei-35" transform="translate(100 0)"/>
      </g>
     </g>
    </g>
    <g id="ytick_8">
     <g id="line2d_29">
      <path d="M 72 69.324298 
L 518.4 69.324298 
" clip-path="url(#pea38624490)" style="fill: none; stroke-dasharray: 2.96,1.28; stroke-dashoffset: 0; stroke: #b0b0b0; stroke-opacity: 0.5; stroke-width: 0.8"/>
     </g>
     <g id="line2d_30">
      <g>
       <use xlink:href="#m8c028016ed" x="72" y="69.324298" style="stroke: #000000; stroke-width: 0.8"/>
      </g>
     </g>
     <g id="text_16">
      <!-- 5.0 -->
      <g transform="translate(50 72.761798) scale(0.1 -0.1)">
       <use xlink:href="#SimHei-35"/>
       <use xlink:href="#SimHei-2e" transform="translate(50 0)"/>
       <use xlink:href="#SimHei-30" transform="translate(100 0)"/>
      </g>
     </g>
    </g>
    <g id="text_17">
     <!-- 目标函数值 -->
     <g transform="translate(34 221.8) rotate(-90) scale(0.16 -0.16)">
      <defs>
       <path id="SimHei-76ee" d="M 5375 4900 
Q 5350 4175 5350 3525 
L 5350 600 
Q 5350 225 5375 -550 
L 4825 -550 
L 4825 -100 
L 1575 -100 
L 1575 -525 
L 1050 -525 
Q 1075 150 1075 550 
L 1075 3525 
Q 1075 4350 1050 4900 
L 5375 4900 
z
M 4825 300 
L 4825 1475 
L 1575 1475 
L 1575 300 
L 4825 300 
z
M 4825 1875 
L 4825 3000 
L 1575 3000 
L 1575 1875 
L 4825 1875 
z
M 4825 3400 
L 4825 4500 
L 1575 4500 
L 1575 3400 
L 4825 3400 
z
" transform="scale(0.015625)"/>
       <path id="SimHei-6807" d="M 1275 4400 
Q 1275 4800 1250 5175 
L 1750 5175 
Q 1725 4825 1725 4400 
L 1725 3800 
Q 2125 3800 2575 3825 
L 2575 3350 
Q 2125 3375 1725 3375 
L 1725 2525 
Q 1900 2650 2075 2800 
Q 2400 2275 2650 1775 
Q 2375 1650 2175 1500 
Q 2025 2000 1725 2425 
L 1725 475 
Q 1725 -50 1750 -575 
L 1250 -575 
Q 1275 -25 1275 475 
L 1275 2100 
Q 1025 1400 500 750 
Q 350 950 125 1125 
Q 550 1550 812 2187 
Q 1075 2825 1150 3375 
Q 675 3375 325 3325 
L 325 3825 
Q 800 3800 1275 3800 
L 1275 4400 
z
M 5175 3125 
Q 5675 3125 6050 3150 
L 6050 2675 
Q 5675 2700 5275 2700 
L 4500 2700 
L 4500 175 
Q 4500 -225 4275 -350 
Q 4050 -475 3475 -550 
Q 3425 -250 3275 25 
Q 3775 25 3900 62 
Q 4025 100 4025 350 
L 4025 2700 
L 3400 2700 
Q 2775 2700 2500 2650 
L 2500 3150 
Q 2825 3125 3400 3125 
L 5175 3125 
z
M 4900 4775 
Q 5425 4775 5750 4800 
L 5750 4300 
Q 5275 4350 4750 4350 
L 3525 4350 
Q 3125 4350 2750 4300 
L 2750 4800 
Q 3100 4775 3525 4775 
L 4900 4775 
z
M 5275 2025 
Q 5825 1175 6200 500 
Q 5925 375 5650 200 
Q 5375 925 4825 1725 
Q 5075 1850 5275 2025 
z
M 3600 1775 
Q 3500 1625 3225 975 
Q 2950 325 2800 50 
Q 2575 175 2300 275 
Q 2625 775 2787 1187 
Q 2950 1600 3050 2000 
Q 3325 1875 3600 1775 
z
" transform="scale(0.015625)"/>
       <path id="SimHei-51fd" d="M 1200 200 
L 5200 200 
L 5200 2225 
Q 5200 2600 5150 3075 
L 5700 3075 
Q 5675 2500 5675 2225 
L 5675 50 
Q 5675 -275 5700 -625 
L 5200 -625 
L 5200 -225 
L 700 -225 
Q 725 50 725 1375 
Q 725 2700 700 3075 
L 1225 3075 
Q 1200 2800 1200 2475 
L 1200 200 
z
M 5450 4925 
L 5450 4450 
Q 5075 4325 4475 4037 
Q 3875 3750 3475 3575 
L 3475 1100 
Q 3475 700 3200 587 
Q 2925 475 2525 400 
Q 2475 675 2350 950 
Q 2750 950 2887 1000 
Q 3025 1050 3025 1375 
L 3025 3075 
Q 3025 3550 2975 3850 
Q 3225 3925 3700 4125 
Q 4175 4325 4500 4500 
L 1950 4500 
Q 1425 4500 1025 4475 
L 1025 4950 
Q 1525 4925 1950 4925 
L 5450 4925 
z
M 4500 1750 
Q 4700 1575 5000 1275 
Q 4825 1125 4650 900 
Q 4400 1175 4200 1375 
Q 4000 1575 3600 1925 
Q 3775 2100 3900 2275 
L 4500 1750 
z
M 2700 1800 
Q 2525 1675 2237 1487 
Q 1950 1300 1600 1000 
Q 1525 1175 1325 1425 
Q 1500 1500 1887 1737 
Q 2275 1975 2550 2225 
Q 2600 2025 2700 1800 
z
M 4975 3175 
Q 4800 3100 4562 2912 
Q 4325 2725 4000 2475 
Q 3875 2700 3750 2850 
Q 4025 3050 4200 3200 
Q 4375 3350 4600 3575 
Q 4775 3375 4975 3175 
z
M 2350 2550 
Q 2200 2750 2000 2937 
Q 1800 3125 1475 3350 
Q 1650 3525 1750 3700 
Q 2025 3500 2650 2950 
Q 2475 2725 2350 2550 
z
" transform="scale(0.015625)"/>
       <path id="SimHei-503c" d="M 3675 4450 
L 3675 5100 
Q 3975 5075 4350 5050 
Q 4225 4875 4200 4450 
L 5125 4450 
Q 5550 4450 5875 4475 
L 5875 4025 
Q 5525 4050 5125 4050 
L 4175 4050 
L 4125 3500 
L 5400 3500 
Q 5375 3200 5375 2700 
L 5375 150 
Q 5875 150 6100 175 
L 6100 -275 
Q 5775 -250 5200 -250 
L 2850 -250 
Q 2275 -250 1900 -275 
L 1900 175 
Q 2125 150 2600 150 
L 2600 2700 
Q 2600 3175 2575 3500 
L 3600 3500 
L 3650 4050 
L 3200 4050 
Q 2575 4050 2225 4025 
L 2225 4475 
Q 2550 4450 3200 4450 
L 3675 4450 
z
M 2225 4900 
Q 2025 4675 1650 3750 
L 1650 450 
Q 1650 -75 1675 -550 
L 1150 -550 
Q 1175 -125 1175 375 
L 1175 2950 
Q 875 2450 625 2150 
Q 425 2425 250 2575 
Q 500 2825 937 3537 
Q 1375 4250 1625 5150 
Q 1975 4975 2225 4900 
z
M 4925 2650 
L 4925 3150 
L 3075 3150 
L 3075 2650 
L 4925 2650 
z
M 4925 150 
L 4925 625 
L 3075 625 
L 3075 150 
L 4925 150 
z
M 4925 1000 
L 4925 1450 
L 3075 1450 
L 3075 1000 
L 4925 1000 
z
M 4925 1825 
L 4925 2275 
L 3075 2275 
L 3075 1825 
L 4925 1825 
z
" transform="scale(0.015625)"/>
      </defs>
      <use xlink:href="#SimHei-76ee"/>
      <use xlink:href="#SimHei-6807" transform="translate(100 0)"/>
      <use xlink:href="#SimHei-51fd" transform="translate(200 0)"/>
      <use xlink:href="#SimHei-6570" transform="translate(300 0)"/>
      <use xlink:href="#SimHei-503c" transform="translate(400 0)"/>
     </g>
    </g>
   </g>
   <g id="line2d_31">
    <path d="M 92.290909 307.8 
L 227.563636 56.005473 
L 362.836364 55.8 
L 498.109091 55.8 
" clip-path="url(#pea38624490)" style="fill: none; stroke: #1f77b4; stroke-width: 1.5; stroke-linecap: square"/>
   </g>
   <g id="patch_3">
    <path d="M 72 320.4 
L 72 43.2 
" style="fill: none; stroke: #000000; stroke-width: 0.8; stroke-linejoin: miter; stroke-linecap: square"/>
   </g>
   <g id="patch_4">
    <path d="M 518.4 320.4 
L 518.4 43.2 
" style="fill: none; stroke: #000000; stroke-width: 0.8; stroke-linejoin: miter; stroke-linecap: square"/>
   </g>
   <g id="patch_5">
    <path d="M 72 320.4 
L 518.4 320.4 
" style="fill: none; stroke: #000000; stroke-width: 0.8; stroke-linejoin: miter; stroke-linecap: square"/>
   </g>
   <g id="patch_6">
    <path d="M 72 43.2 
L 518.4 43.2 
" style="fill: none; stroke: #000000; stroke-width: 0.8; stroke-linejoin: miter; stroke-linecap: square"/>
   </g>
   <g id="text_18">
    <!-- 收敛曲线 -->
    <g transform="translate(259.2 28.2) scale(0.18 -0.18)">
     <defs>
      <path id="SimHei-6536" d="M 4250 5050 
Q 4125 4850 3750 4050 
L 5150 4050 
Q 5675 4050 6125 4075 
L 6125 3600 
Q 5675 3625 5300 3625 
Q 5225 2625 5025 1975 
Q 4825 1325 4575 900 
Q 4900 500 5287 275 
Q 5675 50 6200 -75 
Q 5900 -275 5800 -550 
Q 5300 -350 4950 -100 
Q 4600 150 4275 525 
Q 3800 0 2775 -625 
Q 2650 -425 2300 -225 
Q 3275 150 3950 925 
Q 3775 1325 3612 1787 
Q 3450 2250 3250 3000 
Q 2975 2450 2825 2275 
Q 2650 2400 2425 2525 
Q 2775 3025 3137 3837 
Q 3500 4650 3625 5250 
Q 3925 5125 4250 5050 
z
M 975 4275 
Q 925 3950 925 3450 
L 925 1575 
L 1775 1725 
L 1775 4425 
Q 1775 4775 1750 5150 
L 2250 5150 
Q 2225 4850 2225 4450 
L 2225 300 
Q 2225 -50 2250 -550 
L 1750 -550 
Q 1775 -25 1775 350 
L 1775 1350 
Q 625 1050 500 925 
Q 375 1125 225 1350 
Q 450 1475 450 1800 
L 450 3575 
Q 450 3925 425 4275 
L 975 4275 
z
M 3725 3150 
Q 3800 2700 3962 2212 
Q 4125 1725 4300 1375 
Q 4725 2150 4825 3625 
L 3575 3625 
Q 3400 3275 3300 3100 
L 3725 3150 
z
" transform="scale(0.015625)"/>
      <path id="SimHei-655b" d="M 3525 2325 
Q 3375 2500 3125 2675 
Q 3525 3150 3775 3837 
Q 4025 4525 4125 5175 
Q 4350 5100 4700 5000 
Q 4625 4975 4537 4712 
Q 4450 4450 4300 4025 
L 5600 4025 
Q 5825 4025 6100 4050 
L 6100 3575 
Q 5725 3600 5525 3600 
Q 5450 2850 5325 2162 
Q 5200 1475 4900 800 
Q 5350 250 6200 -50 
Q 5975 -275 5850 -575 
Q 5050 -75 4625 425 
Q 4100 -200 3250 -675 
Q 3100 -350 2925 -175 
Q 3750 75 4325 775 
Q 4075 1225 3900 1687 
Q 3725 2150 3650 2550 
L 3525 2325 
z
M 2975 2925 
Q 2650 2950 2075 2950 
Q 1450 2950 1175 2925 
L 1175 3325 
Q 900 3000 575 2750 
Q 425 2975 175 3125 
Q 750 3525 1237 4187 
Q 1725 4850 1875 5275 
Q 2175 5100 2400 5000 
Q 2325 4900 2200 4700 
Q 2875 4300 3525 3850 
Q 3325 3575 3175 3375 
Q 2950 3625 2612 3900 
Q 2275 4175 1975 4375 
Q 1650 3925 1225 3375 
Q 1500 3350 2075 3350 
Q 2650 3350 2975 3375 
L 2975 2925 
z
M 3325 2450 
Q 3175 2250 3050 1725 
Q 2925 1200 2775 625 
Q 3075 675 3475 775 
Q 3400 575 3450 325 
Q 2300 150 1600 0 
Q 900 -150 725 -250 
Q 650 75 550 325 
Q 1125 350 2325 550 
Q 2475 1125 2600 1725 
Q 2725 2325 2750 2600 
Q 3000 2525 3325 2450 
z
M 3925 3000 
Q 4050 2500 4262 1925 
Q 4475 1350 4600 1175 
Q 4825 1725 4925 2287 
Q 5025 2850 5075 3600 
L 4175 3600 
Q 4100 3375 3925 3000 
z
M 1025 2350 
Q 1275 1625 1450 925 
Q 1200 850 1000 775 
Q 725 1875 575 2175 
Q 825 2250 1025 2350 
z
M 2000 2525 
Q 2150 1975 2275 1250 
Q 2050 1225 1825 1150 
Q 1775 1525 1575 2425 
Q 1775 2475 2000 2525 
z
" transform="scale(0.015625)"/>
      <path id="SimHei-66f2" d="M 5825 500 
Q 5825 -200 5850 -550 
L 5275 -550 
L 5275 -50 
L 1150 -50 
L 1150 -550 
L 575 -550 
Q 600 125 600 550 
L 600 2775 
Q 600 3425 575 3900 
L 2150 3900 
L 2150 4450 
Q 2125 4850 2125 5150 
L 2700 5150 
Q 2650 4825 2650 4475 
L 2650 3900 
L 3700 3900 
L 3700 4525 
Q 3700 4850 3675 5175 
L 4250 5175 
Q 4225 4875 4225 4550 
L 4225 3900 
L 5850 3900 
Q 5825 3525 5825 2750 
L 5825 500 
z
M 3700 325 
L 3700 1875 
L 2650 1875 
L 2650 325 
L 3700 325 
z
M 5275 325 
L 5275 1875 
L 4225 1875 
L 4225 325 
L 5275 325 
z
M 2150 325 
L 2150 1875 
L 1150 1875 
L 1150 325 
L 2150 325 
z
M 3700 2250 
L 3700 3525 
L 2650 3525 
L 2650 2250 
L 3700 2250 
z
M 5275 2250 
L 5275 3525 
L 4225 3525 
L 4225 2250 
L 5275 2250 
z
M 2150 2250 
L 2150 3525 
L 1150 3525 
L 1150 2250 
L 2150 2250 
z
" transform="scale(0.015625)"/>
      <path id="SimHei-7ebf" d="M 3450 4300 
Q 3450 4675 3375 5125 
Q 3700 5100 4050 5050 
Q 3975 4900 3950 4562 
Q 3925 4225 3950 3600 
L 4800 3750 
Q 5225 3850 5650 3975 
L 5750 3500 
Q 5325 3450 4875 3375 
L 3975 3200 
Q 3975 2800 4025 2500 
L 5000 2675 
Q 5500 2775 5950 2925 
L 6025 2450 
Q 5575 2375 5075 2275 
L 4100 2100 
Q 4150 1600 4350 1175 
Q 4575 1350 4787 1575 
Q 5000 1800 5175 2075 
Q 5550 1775 5750 1675 
Q 5425 1525 5237 1337 
Q 5050 1150 4625 750 
Q 4925 250 5162 112 
Q 5400 -25 5500 100 
Q 5600 225 5675 625 
Q 5900 450 6200 350 
Q 5775 -750 5275 -537 
Q 4775 -325 4225 450 
Q 3875 175 3537 -62 
Q 3200 -300 2700 -550 
Q 2575 -300 2325 -100 
Q 2825 75 3175 275 
Q 3525 475 3975 850 
Q 3750 1350 3650 2025 
Q 2900 1900 2600 1800 
L 2525 2275 
Q 2825 2275 3550 2425 
Q 3500 2825 3500 3100 
Q 2825 2950 2575 2875 
L 2475 3350 
Q 2725 3350 3450 3500 
L 3450 4300 
z
M 1950 4875 
Q 1700 4650 1462 4237 
Q 1225 3825 825 3225 
Q 1425 3250 1650 3250 
Q 1875 3625 2050 4075 
Q 2300 3900 2600 3800 
Q 2350 3550 2087 3125 
Q 1825 2700 1175 1675 
Q 1850 1725 2375 1775 
Q 2300 1525 2300 1350 
Q 2125 1350 1525 1287 
Q 925 1225 550 1125 
Q 525 1375 400 1650 
Q 700 1725 950 2050 
Q 1200 2375 1475 2875 
Q 650 2825 425 2675 
Q 350 2950 200 3225 
Q 525 3450 825 3962 
Q 1125 4475 1375 5150 
Q 1625 4975 1950 4875 
z
M 2575 875 
Q 2550 600 2575 450 
Q 1950 325 1450 200 
Q 950 75 525 -75 
Q 450 200 250 475 
Q 950 550 1325 612 
Q 1700 675 2575 875 
z
M 4850 4025 
Q 4675 4300 4375 4675 
L 4775 4875 
Q 4875 4750 5275 4275 
Q 5025 4175 4850 4025 
z
" transform="scale(0.015625)"/>
     </defs>
     <use xlink:href="#SimHei-6536"/>
     <use xlink:href="#SimHei-655b" transform="translate(100 0)"/>
     <use xlink:href="#SimHei-66f2" transform="translate(200 0)"/>
     <use xlink:href="#SimHei-7ebf" transform="translate(300 0)"/>
    </g>
   </g>
  </g>
 </g>
 <defs>
  <clipPath id="pea38624490">
   <rect x="72" y="43.2" width="446.4" height="277.2"/>
  </clipPath>
 </defs>
</svg>
